<svg viewBox="0 0 129 29" fill="none" xmlns="http://www.w3.org/2000/svg"><path d="M56.915.73h1.663v8.955h-1.663V.73ZM65.95 9.813c-.913 0-1.736-.196-2.469-.589-.733-.4-1.309-.95-1.727-1.65a4.567 4.567 0 0 1-.627-2.366c0-.87.21-1.655.627-2.354a4.346 4.346 0 0 1 1.727-1.65c.733-.401 1.556-.601 2.469-.601.912 0 1.735.2 2.469.6.733.393 1.309.939 1.727 1.638.418.7.626 1.488.626 2.367 0 .878-.209 1.667-.626 2.366-.418.7-.994 1.25-1.727 1.65-.734.393-1.557.589-2.47.589Zm0-1.459c.597 0 1.134-.132 1.612-.396a2.973 2.973 0 0 0 1.125-1.126c.273-.486.41-1.027.41-1.624 0-.597-.137-1.135-.41-1.612a2.859 2.859 0 0 0-1.125-1.126 3.19 3.19 0 0 0-1.612-.41 3.19 3.19 0 0 0-1.612.41c-.477.265-.853.64-1.126 1.126a3.19 3.19 0 0 0-.409 1.612c0 .597.137 1.138.41 1.624.272.478.648.853 1.125 1.126a3.271 3.271 0 0 0 1.612.396ZM78.619 9.685l-2.43-3.403-2.405 3.403H71.89l3.326-4.567L72.07.73h1.88l2.29 3.186L78.504.73h1.804l-3.135 4.324 3.365 4.63h-1.919ZM82.315.73h1.663v8.955h-1.663V.73ZM91.35 9.813c-.912 0-1.735-.196-2.469-.589a4.465 4.465 0 0 1-1.727-1.65 4.567 4.567 0 0 1-.626-2.366c0-.87.209-1.655.626-2.354a4.347 4.347 0 0 1 1.727-1.65c.734-.401 1.557-.601 2.47-.601.912 0 1.735.2 2.468.6.733.393 1.31.939 1.727 1.638.418.7.627 1.488.627 2.367 0 .878-.21 1.667-.627 2.366-.418.7-.994 1.25-1.727 1.65-.733.393-1.556.589-2.469.589Zm0-1.459c.597 0 1.134-.132 1.612-.396a2.973 2.973 0 0 0 1.126-1.126 3.26 3.26 0 0 0 .409-1.624 3.19 3.19 0 0 0-.41-1.612 2.858 2.858 0 0 0-1.125-1.126 3.19 3.19 0 0 0-1.612-.41 3.19 3.19 0 0 0-1.612.41c-.477.265-.852.64-1.125 1.126a3.19 3.19 0 0 0-.41 1.612c0 .597.137 1.138.41 1.624.273.478.648.853 1.125 1.126a3.272 3.272 0 0 0 1.612.396ZM56.915 16.72h3.914c.955 0 1.803.188 2.545.563a4.064 4.064 0 0 1 1.727 1.573c.41.674.614 1.454.614 2.341 0 .887-.204 1.672-.614 2.354a4.173 4.173 0 0 1-1.727 1.574c-.742.366-1.59.55-2.545.55h-3.914V16.72Zm3.837 7.547c.657 0 1.232-.123 1.727-.37a2.703 2.703 0 0 0 1.151-1.075c.273-.469.41-1.01.41-1.625 0-.614-.137-1.15-.41-1.611a2.604 2.604 0 0 0-1.151-1.075c-.495-.256-1.07-.384-1.727-.384h-2.175v6.14h2.175ZM70.323 18.767c1.006 0 1.773.243 2.302.73.537.477.806 1.201.806 2.174v4.004h-1.51v-.832a1.896 1.896 0 0 1-.844.69c-.358.154-.793.231-1.304.231-.512 0-.96-.085-1.344-.256a2.185 2.185 0 0 1-.895-.729 1.908 1.908 0 0 1-.307-1.062c0-.614.226-1.104.678-1.47.46-.376 1.181-.564 2.162-.564h1.765v-.102c0-.477-.145-.844-.435-1.1-.281-.256-.703-.384-1.266-.384-.384 0-.763.06-1.139.18a2.79 2.79 0 0 0-.934.498l-.626-1.164a3.881 3.881 0 0 1 1.292-.627 5.752 5.752 0 0 1 1.599-.217Zm-.218 5.833c.401 0 .755-.09 1.062-.269.315-.187.537-.452.665-.793v-.793h-1.65c-.921 0-1.382.303-1.382.909 0 .29.115.52.346.69.23.17.55.256.96.256ZM79.973 25.304a1.88 1.88 0 0 1-.69.345 3.017 3.017 0 0 1-.845.115c-.75 0-1.33-.196-1.74-.588-.409-.393-.614-.964-.614-1.714v-3.288H74.96v-1.28h1.125v-1.56h1.6v1.56h1.829v1.28h-1.83v3.25c0 .332.081.588.243.767.162.17.397.256.704.256.358 0 .657-.094.895-.282l.448 1.139ZM84.282 18.767c1.006 0 1.773.243 2.302.73.537.477.806 1.201.806 2.174v4.004h-1.51v-.832a1.895 1.895 0 0 1-.844.69c-.358.154-.793.231-1.304.231-.512 0-.96-.085-1.344-.256a2.185 2.185 0 0 1-.895-.729 1.908 1.908 0 0 1-.307-1.062c0-.614.226-1.104.678-1.47.46-.376 1.181-.564 2.162-.564h1.765v-.102c0-.477-.145-.844-.435-1.1-.281-.256-.703-.384-1.266-.384-.384 0-.763.06-1.139.18a2.79 2.79 0 0 0-.933.498l-.627-1.164a3.881 3.881 0 0 1 1.292-.627 5.752 5.752 0 0 1 1.599-.217Zm-.218 5.833c.401 0 .755-.09 1.062-.269a1.52 1.52 0 0 0 .665-.793v-.793h-1.65c-.921 0-1.382.303-1.382.909 0 .29.116.52.346.69.23.17.55.256.96.256ZM91.937 25.764a6.118 6.118 0 0 1-1.625-.217c-.529-.145-.95-.329-1.266-.55l.614-1.216c.307.205.673.371 1.1.5.435.119.861.178 1.279.178.955 0 1.433-.251 1.433-.754 0-.24-.124-.405-.371-.5-.24-.093-.627-.183-1.164-.268a9.738 9.738 0 0 1-1.382-.294 2.188 2.188 0 0 1-.92-.576c-.257-.281-.385-.67-.385-1.164 0-.648.269-1.164.806-1.548.546-.392 1.28-.588 2.2-.588.47 0 .939.055 1.407.166.47.103.853.243 1.152.422l-.614 1.216c-.58-.341-1.232-.512-1.957-.512-.47 0-.828.072-1.075.217-.239.137-.358.32-.358.55 0 .256.128.44.384.55.264.103.67.2 1.215.295.546.085.993.183 1.343.294.35.11.648.298.895.563.256.264.384.64.384 1.126 0 .64-.277 1.15-.831 1.535-.554.383-1.31.575-2.264.575ZM100.579 18.767c.666 0 1.258.145 1.779.435.528.29.942.7 1.24 1.228.299.529.448 1.138.448 1.83 0 .69-.149 1.304-.448 1.841a3.125 3.125 0 0 1-1.24 1.228c-.521.29-1.113.435-1.779.435-.92 0-1.65-.307-2.187-.92v3.312h-1.599v-9.312h1.522v.895c.265-.324.589-.567.972-.729a3.35 3.35 0 0 1 1.292-.243Zm-.179 5.628c.589 0 1.071-.196 1.446-.588.384-.392.575-.908.575-1.548s-.191-1.155-.575-1.548c-.375-.392-.857-.588-1.446-.588-.383 0-.729.09-1.036.268-.307.171-.55.418-.729.743-.179.323-.269.699-.269 1.125 0 .427.09.802.27 1.126.178.324.421.575.728.755.307.17.653.255 1.036.255ZM108.468 18.767c1.007 0 1.774.243 2.303.73.537.477.806 1.201.806 2.174v4.004h-1.51v-.832a1.892 1.892 0 0 1-.844.69c-.358.154-.793.231-1.305.231-.511 0-.959-.085-1.343-.256a2.18 2.18 0 0 1-.895-.729 1.906 1.906 0 0 1-.307-1.062c0-.614.226-1.104.678-1.47.46-.376 1.181-.564 2.161-.564h1.766v-.102c0-.477-.145-.844-.435-1.1-.282-.256-.704-.384-1.267-.384-.383 0-.763.06-1.138.18a2.79 2.79 0 0 0-.934.498l-.627-1.164a3.891 3.891 0 0 1 1.292-.627 5.75 5.75 0 0 1 1.599-.217Zm-.217 5.833c.401 0 .755-.09 1.062-.269.315-.187.537-.452.665-.793v-.793h-1.65c-.921 0-1.382.303-1.382.909 0 .29.115.52.345.69.231.17.551.256.96.256ZM117.209 25.764c-.708 0-1.343-.15-1.906-.448a3.296 3.296 0 0 1-1.317-1.24 3.515 3.515 0 0 1-.474-1.817c0-.674.158-1.275.474-1.803a3.32 3.32 0 0 1 1.304-1.241c.563-.299 1.203-.448 1.919-.448.674 0 1.262.136 1.765.41.512.272.896.665 1.152 1.176l-1.228.716a1.897 1.897 0 0 0-.742-.703 1.934 1.934 0 0 0-.96-.243c-.597 0-1.091.196-1.484.588-.392.384-.588.9-.588 1.548s.192 1.168.576 1.56c.392.384.891.576 1.496.576.35 0 .67-.076.96-.23.298-.162.545-.4.742-.716l1.228.716a2.804 2.804 0 0 1-1.164 1.19c-.504.273-1.088.41-1.753.41ZM128.213 22.297c0 .111-.008.27-.025.474h-5.36c.094.503.337.904.729 1.202.401.29.895.435 1.484.435.75 0 1.368-.247 1.855-.742l.857.985a2.888 2.888 0 0 1-1.164.832 4.242 4.242 0 0 1-1.587.281c-.75 0-1.411-.15-1.982-.448a3.282 3.282 0 0 1-1.331-1.24c-.307-.538-.46-1.143-.46-1.817 0-.665.149-1.262.448-1.79a3.254 3.254 0 0 1 1.266-1.254c.537-.299 1.143-.448 1.816-.448.666 0 1.258.15 1.778.448.529.29.938.703 1.228 1.24.299.53.448 1.143.448 1.843Zm-3.454-2.25c-.511 0-.946.153-1.304.46-.35.298-.563.699-.64 1.202h3.876c-.068-.494-.277-.895-.627-1.202-.35-.307-.784-.46-1.305-.46Z" fill="#101920"/><path fill-rule="evenodd" clip-rule="evenodd" d="M7.552.73H1.18l19.937 12.348L.725 25.677h6.372l17.115-10.608 3.187-1.99-3.187-1.989L7.552.73Zm20.664 16.823 13.11 8.122h6.282L31.312 15.647l-3.096 1.906ZM40.871.73h6.281l-15.84 9.78-3.096-1.906L40.871.729Z" fill="#101920"/></svg>
